<?xml version="1.0" encoding="UTF-8" standalone="no"?>
<svg
   xmlns:dc="http://purl.org/dc/elements/1.1/"
   xmlns:cc="http://creativecommons.org/ns#"
   xmlns:rdf="http://www.w3.org/1999/02/22-rdf-syntax-ns#"
   xmlns:svg="http://www.w3.org/2000/svg"
   xmlns="http://www.w3.org/2000/svg"
   xmlns:sodipodi="http://sodipodi.sourceforge.net/DTD/sodipodi-0.dtd"
   xmlns:inkscape="http://www.inkscape.org/namespaces/inkscape"
   width="533"
   height="400"
   viewBox="0 0 141.02292 105.83333"
   version="1.1"
   id="svg16"
   inkscape:version="1.0.2-2 (e86c870879, 2021-01-15)"
   sodipodi:docname="bubble trap.svg"
   inkscape:export-filename="C:\Users\katts\Creative Projects\cocksmithing\Cocksmithing Guide\images\undercut.png"
   inkscape:export-xdpi="96.118271"
   inkscape:export-ydpi="96.118271">
  <defs
     id="defs10">
    <marker
       style="overflow:visible"
       id="Arrow2Lstart"
       refX="0.0"
       refY="0.0"
       orient="auto"
       inkscape:stockid="Arrow2Lstart"
       inkscape:isstock="true">
      <path
         transform="scale(1.1) translate(1,0)"
         d="M 8.7185878,4.0337352 L -2.2072895,0.016013256 L 8.7185884,-4.0017078 C 6.9730900,-1.6296469 6.9831476,1.6157441 8.7185878,4.0337352 z "
         style="fill-rule:evenodd;stroke-width:0.625;stroke-linejoin:round;stroke:#e6e6c6;stroke-opacity:1;fill:#ffb380;fill-opacity:1"
         id="path885" />
    </marker>
    <rect
       x="24.946429"
       y="7.3705357"
       width="19.654762"
       height="84.288691"
       id="rect1455" />
    <rect
       x="25.324405"
       y="50.64881"
       width="3.2127976"
       height="10.96131"
       id="rect1449" />
    <marker
       style="overflow:visible"
       id="Arrow1Lstart"
       refX="0.0"
       refY="0.0"
       orient="auto"
       inkscape:stockid="Arrow1Lstart"
       inkscape:isstock="true">
      <path
         transform="scale(0.8) translate(12.5,0)"
         style="fill-rule:evenodd;stroke:#e6e6c6;stroke-width:1pt;stroke-opacity:1;fill:#805980;fill-opacity:1"
         d="M 0.0,0.0 L 5.0,-5.0 L -12.5,0.0 L 5.0,5.0 L 0.0,0.0 z "
         id="path867" />
    </marker>
    <marker
       style="overflow:visible"
       id="Arrow1Lstart-8"
       refX="0"
       refY="0"
       orient="auto"
       inkscape:stockid="Arrow1Lstart"
       inkscape:isstock="true">
      <path
         transform="matrix(0.8,0,0,0.8,10,0)"
         style="fill:#608097;fill-opacity:1;fill-rule:evenodd;stroke:#e6e6c6;stroke-width:1pt;stroke-opacity:1"
         d="M 0,0 5,-5 -12.5,0 5,5 Z"
         id="path867-9" />
    </marker>
    <marker
       style="overflow:visible"
       id="Arrow1Lstart-6"
       refX="0"
       refY="0"
       orient="auto"
       inkscape:stockid="Arrow1Lstart"
       inkscape:isstock="true">
      <path
         transform="matrix(0.8,0,0,0.8,10,0)"
         style="fill:#805980;fill-opacity:1;fill-rule:evenodd;stroke:#e6e6c6;stroke-width:1pt;stroke-opacity:1"
         d="M 0,0 5,-5 -12.5,0 5,5 Z"
         id="path867-7" />
    </marker>
  </defs>
  <sodipodi:namedview
     id="base"
     pagecolor="#ffffff"
     bordercolor="#666666"
     borderopacity="1.0"
     inkscape:pageopacity="0.0"
     inkscape:pageshadow="2"
     inkscape:zoom="0.98994949"
     inkscape:cx="219.67428"
     inkscape:cy="62.864523"
     inkscape:document-units="mm"
     inkscape:current-layer="layer1"
     inkscape:document-rotation="0"
     showgrid="false"
     units="px"
     inkscape:window-width="1267"
     inkscape:window-height="1040"
     inkscape:window-x="2204"
     inkscape:window-y="88"
     inkscape:window-maximized="0" />
  <metadata
     id="metadata13">
    <rdf:RDF>
      <cc:Work
         rdf:about="">
        <dc:format>image/svg+xml</dc:format>
        <dc:type
           rdf:resource="http://purl.org/dc/dcmitype/StillImage" />
        <dc:title></dc:title>
      </cc:Work>
    </rdf:RDF>
  </metadata>
  <g
     inkscape:label="Layer 1"
     inkscape:groupmode="layer"
     id="layer1">
    <rect
       style="fill:#4d4d4d;stroke-width:0.265375"
       id="rect20"
       width="140.89296"
       height="105.70312"
       x="0.22191662"
       y="0.16482835" />
    <path
       style="fill:#de87cd;fill-opacity:1;stroke:#000000;stroke-width:0.248182px;stroke-linecap:butt;stroke-linejoin:miter;stroke-opacity:1"
       d="m 35.382499,11.023341 c -1.014781,-0.220179 -2.076911,-0.08637 -3.109704,-0.177237 -0.590762,-0.05198 -1.272476,-0.213313 -1.870887,-0.117582 -0.746826,0.119475 -1.58432,0.341424 -2.204974,0.705488 -0.18115,0.106258 -0.482627,0.11272 -0.668174,0.235161 -0.132297,0.0873 -0.259847,0.219487 -0.400904,0.293953 -0.06039,0.03189 -0.145452,0.02008 -0.200451,0.05879 -0.06271,0.04414 -0.08347,0.121198 -0.133636,0.176373 -0.54971,0.604592 -0.823647,0.919148 -1.00226,1.704927 -0.01953,0.08594 -0.11726,0.148714 -0.133635,0.235162 -0.04718,0.249085 -0.06405,0.519385 -0.133634,0.764277 -0.02909,0.102382 -0.104545,0.191572 -0.133635,0.293953 -0.05568,0.195969 0.03712,0.130646 0,0.293953 0.01533,0.11806 -0.104545,0.191572 -0.133635,0.293953 -0.07094,0.249687 -0.162255,1.100267 -0.06682,1.352184 0.02539,0.06703 0.09772,0.113173 0.133635,0.176372 0.0892,0.156971 0.05508,0.332091 0.133634,0.470324 0.02817,0.04958 0.105462,0.06801 0.133635,0.117582 0.242315,0.42641 -0.561753,-0.412071 0.133635,0.352743 0.03111,0.03422 0.09842,0.0278 0.133635,0.05879 0.0498,0.04382 0.02456,0.126795 0.06682,0.176371 0.303485,0.356037 0.50223,0.794642 0.868625,1.117022 0.250494,0.220401 0.54845,0.423773 0.801809,0.646697 0.03522,0.03099 0.0316,0.0866 0.06682,0.117581 0.274236,0.241293 0.663766,0.407656 0.935442,0.646696 0.05679,0.04996 0.07093,0.132232 0.133636,0.176372 0.141454,0.09957 0.382598,0.146037 0.534538,0.235162 0.07862,0.04612 0.12183,0.130253 0.200454,0.176372 0.332496,0.195036 2.614654,0.117581 3.140416,0.117581 0.607803,0 1.146177,0.111363 1.737251,0.176371 0.376854,0.04145 0.759257,0.01145 1.135896,0.05879 0.649962,0.0817 -0.193992,0.05437 0.668174,0.117582 0.308914,0.02265 0.626948,-0.02714 0.935445,0 0.26961,0.02372 0.531963,0.096 0.801806,0.11758 0.702358,0.05618 1.396918,-0.01915 2.071341,0.235163 0.278993,0.105205 0.480248,0.271446 0.734991,0.411534 0.285237,0.156857 0.693878,0.316571 0.935443,0.529115 0.267618,0.23547 0.403151,0.589883 0.668173,0.823069 0.167709,0.147562 0.271246,0.221396 0.400905,0.411534 0.07247,0.106278 0.0555,0.249617 0.133635,0.352744 0.05241,0.06918 0.148035,0.107192 0.200451,0.176371 0.194435,0.256616 0.150863,0.549938 0.267269,0.823067 0.333928,0.783501 0.496343,1.637605 0.601359,2.469207 0.02508,0.198626 0.10855,0.389277 0.133633,0.587906 0.02703,0.214076 0.02664,0.434602 0.06682,0.646696 0.07386,0.389924 0.06682,0.05275 0.06682,0.235162 -0.02228,0.29395 -0.09907,0.588618 -0.06682,0.881851 0.09087,0.826217 0.455637,1.776434 0.668174,2.586786 0.173124,0.660083 0.142655,1.341014 0.267269,1.99888 0.125003,0.659916 0,1.446981 0,2.116461 0,1.148796 0.144203,2.385519 0,3.527435 -0.02508,0.198627 -0.08909,0.391937 -0.133634,0.587906 -0.04454,0.235162 -0.106674,0.468264 -0.133635,0.705487 -0.05188,0.45646 0,0.950012 0,1.410975 0,1.168599 -0.124575,2.391482 0.133635,3.527434 0.178494,0.785258 -0.220407,1.693489 0,2.469205 0.173477,0.610548 0.133634,-0.125523 0.133634,0.470325 v 4.468085 c 0,0.652191 0.0738,1.349565 0,1.99888 -0.09348,0.822519 -0.268753,1.655277 -0.400904,2.469204 -0.09359,0.576411 0.08211,1.185767 0,1.763717 -0.133012,0.936265 -0.134257,1.885679 -0.267269,2.821948 -0.109694,0.772128 0.09768,1.578074 0,2.351624 -0.11409,0.903456 -0.04782,1.798282 -0.133635,2.704367 -0.268685,2.836896 -0.133635,5.729245 -0.133635,8.583426 0,2.251969 0.531881,4.317292 0.944245,6.494271 0.103939,0.548711 0.111038,0.50923 0.188988,0.989353 0.02619,0.161288 0.561403,0.725858 0.613516,0.863416 0.063,0.166284 0.983849,0.636609 1.046845,0.802894 0.687181,1.038731 0.04713,0.740027 0.983386,0.953691 1.468185,1.6251 0.26164,0.409561 1.468185,1.6251 0.186977,1.185705 0.502779,2.40428 1.50339,2.645576 3.126702,1.404923 2.775707,1.627415 4.476765,1.851896 0.435716,0.05482 0.902356,-0.06361 1.336348,0 1.106659,0.162292 2.159611,0.309407 3.340869,0.235163 0.663969,-0.04171 1.496126,-0.09394 2.138156,-0.235163 0.155814,-0.03423 0.245091,-0.200883 0.400904,-0.235162 0.673172,-0.148074 1.447665,-0.05288 2.138157,-0.235154 0.190809,-0.05042 0.341276,-0.192656 0.534539,-0.235163 0.138584,-0.03044 0.753551,0.02288 0.935443,0 1.718745,-0.216043 3.486563,-0.06652 5.211756,-0.235163 0.606777,-0.0593 1.275297,-0.247938 1.870887,-0.352748 0.38355,-0.06749 0.683217,-0.296156 1.069078,-0.35274 1.082073,-0.158685 2.139707,-0.282473 3.207234,-0.470326 0.17472,-0.03079 0.361679,0.03801 0.534539,0 0.631295,-0.138869 0.241381,-0.131127 1.069078,-0.235162 0.908014,-0.114137 1.667302,-0.748893 2.539061,-0.940651 0.08643,-0.01901 0.187585,0.03502 0.267269,0 0.112691,-0.04954 0.150289,-0.193994 0.26727,-0.235163 0.03071,-0.01082 0.755747,-0.10137 0.801808,-0.117577 0.752401,-0.264806 1.609188,-0.695695 2.405426,-0.823072 0.262959,-0.04207 0.535866,0.0234 0.801809,0 0.201251,-0.01771 2.81508,-0.639557 2.939965,-0.705486 0.409683,-0.216281 0.799803,-0.469148 1.202712,-0.705487 0.165754,-0.09723 0.393676,-0.111221 0.534539,-0.235162 0.447839,-0.39404 0.419422,-0.990411 0.801809,-1.410974 0.06222,-0.06844 0.222725,-0.03919 0.26727,-0.117582 0.104111,-0.183208 0.05359,-0.611787 0.133634,-0.823068 0.08731,-0.230474 0.276043,-0.368183 0.400905,-0.587906 0.111425,-0.196079 0.138179,-0.770275 0.267269,-0.94065 0.05525,-0.07292 0.230277,-0.03621 0.26727,-0.11758 0.06617,-0.145562 -0.03494,-0.316595 0,-0.470325 0.04953,-0.217883 0.562055,-0.565431 0.668173,-0.705487 0.104376,-0.137755 0.113601,-0.452698 0.26727,-0.587906 0.229263,-0.201721 0.444597,-0.342008 0.668174,-0.587906 0.124446,-0.13687 0.126406,-0.346383 0.267269,-0.470325 0.185158,-0.162914 0.403037,-0.238914 0.534539,-0.470325 0.01992,-0.03505 0,-0.07839 0,-0.11758 0.04454,-0.07839 0.07838,-0.162242 0.133635,-0.235163 0.04112,-0.05427 0.396491,-0.223512 0.400904,-0.235162 0.04226,-0.111548 -0.02621,-0.237446 0,-0.352744 0.05376,-0.23652 0.298698,-0.480666 0.400905,-0.705486 0.204504,-0.449844 0.33138,-0.846511 0.534539,-1.293394 0.168947,-0.371629 0,-1.023252 0,-1.410974 0,-0.283613 0.09212,-0.449795 0.133635,-0.705487 0.162143,-0.998656 -0.162144,-2.058454 0,-3.05711 0.278998,-1.718379 0.314183,-4.690741 0,-6.349384 -0.04394,-0.231963 0.05241,-0.474891 0,-0.705486 -0.168088,-0.739474 -0.427698,-1.493486 -0.668174,-2.234043 -0.103139,-0.317622 -0.215074,-0.772094 -0.400905,-1.058231 -0.110502,-0.170148 -0.301298,-0.295045 -0.400904,-0.470324 -0.03984,-0.07011 0.02161,-0.159115 0,-0.235162 -0.09586,-0.337392 -0.463176,-0.787675 -0.668174,-1.058231 -0.319112,-0.421165 -0.447754,-0.958446 -0.668173,-1.410974 -0.187568,-0.385082 -0.600459,-0.703907 -0.801809,-1.05823 -0.145028,-0.255212 -0.146831,-0.558142 -0.26727,-0.823068 -0.641098,-1.410209 -1.180183,-2.742658 -1.603617,-4.232923 -0.136255,-0.479547 0.136255,-1.049009 0,-1.528555 -0.232957,-0.819889 -0.161188,-2.866799 0.133635,-3.645017 0.201422,-0.531676 0,-1.873935 0,-2.469205 0,-1.056665 0.169651,-2.247376 0,-3.292272 -0.120094,-0.739672 -0.236878,-1.512435 -0.400904,-2.234043 -0.09881,-0.434711 0,-0.964223 0,-1.410974 v -3.174691 c 0,-0.848855 -0.08723,-1.742569 0,-2.586786 0.102586,-0.992885 0.184919,-2.486995 0.534539,-3.409854 0.177108,-0.467495 0,-1.583673 0,-2.116461 0.83242,-0.02244 0.900815,-1.404881 1.603613,-1.528555 0.478917,-0.08427 0.340378,0.126018 0.801809,-0.117582 0.26472,-0.139751 0.394486,-0.272473 0.668173,-0.352743 0.941235,-0.276055 0.369012,0.02883 1.069078,-0.235163 0.438401,-0.165315 0.896165,-0.539492 1.336348,-0.587905 0.581373,-0.06394 1.154263,-0.183867 1.737252,-0.235163 0.455033,-0.04003 1.02311,0.0983 1.46998,0 1.05569,-0.232216 2.06447,-0.379116 3.0736,-0.823067 0.51488,-0.226515 1.01201,-0.268845 1.46998,-0.470325 0.23138,-0.10179 0.35208,0.04929 0.66818,-0.117581 0.16205,-0.08555 0.23187,-0.278379 0.4009,-0.352744 0.3214,-0.141393 0.61814,-0.284201 0.93545,-0.470324 0.0829,-0.04861 0.0445,-0.195969 0.13363,-0.235163 0.0797,-0.03505 0.18759,0.03505 0.26727,0 0.23109,-0.101665 0.36697,-0.372029 0.53454,-0.470325 0.97852,-0.573983 1.71688,-2.483192 2.13816,-3.409854 0.1023,-0.225032 0.34228,-0.499168 0.4009,-0.705487 0.0324,-0.11407 -0.0262,-0.237445 0,-0.352743 0.0751,-0.330634 0.24371,-0.428863 0.4009,-0.705488 0.0892,-0.156877 0.22885,-2.536824 0.13364,-2.704366 -0.63506,-1.117534 -0.91329,-1.359376 -1.87089,-2.201935 -0.48181,-0.474646 -1.57622,-0.245039 -2.43883,-0.253819 -1.00754,0.09915 -1.81858,0.06066 -2.40543,0.100226 l -2.97337,0.200452 c -0.95835,-0.136897 -2.096039,-0.232496 -2.873149,-0.01475 -0.337707,0.359697 -1.019639,-0.165674 -1.08949,0.325825"
       id="path2691"
       sodipodi:nodetypes="cssssssssssscssssssscsscsssssscsssssssssssssscssssscssssssssssssssssccccccccccccsssccsssscssssssssssssssssscsssssssssssssssssssssssssssscsssssssssssssssssccsccsccc" />
    <path
       style="fill:#5fbcd3;fill-opacity:1;stroke:#000000;stroke-width:0.289297;stroke-linecap:butt;stroke-linejoin:miter;stroke-miterlimit:4;stroke-dasharray:none;stroke-opacity:1"
       d="m 35.382499,11.197359 62.016832,-0.19692 v 6.695264 l -13.876421,0.538232 0.843381,10.92716 0.419134,20.773201 -0.0026,16.108524 0.494249,0.618178 0.721272,-0.375722 0.932763,-1.695724 c 1.287222,-2.30797 3.065827,-1.483173 3.035436,0.788873 l -0.647154,2.907453 -4.587844,6.564093 -3.721444,5.387177 -8.697798,5.863945 -8.445198,0.126608 -6.924665,-2.977858 -4.863086,-14.945816 0.867367,-22.054989 -0.54092,-13.346342 -0.161126,-16.35636 -17.729527,-0.03215 z"
       id="path30"
       sodipodi:nodetypes="ccccccccccccccccccccccc" />
    <path
       style="fill:#805980;fill-opacity:1;stroke:#e6e6c6;stroke-width:1.05833;stroke-linecap:butt;stroke-linejoin:miter;stroke-miterlimit:4;stroke-dasharray:none;stroke-opacity:1;marker-start:url(#Arrow1Lstart)"
       d="M 51.168936,80.312619 36.316088,65.674997"
       id="path42"
       sodipodi:nodetypes="cc"
       inkscape:transform-center-x="2.2313116"
       inkscape:transform-center-y="-24.393375" />
    <text
       xml:space="preserve"
       id="text1447"
       style="font-style:normal;font-weight:normal;font-size:10.5833px;line-height:1.25;font-family:sans-serif;white-space:pre;shape-inside:url(#rect1449);fill:#ffffff;fill-opacity:1;stroke:none;" />
    <text
       xml:space="preserve"
       id="text1453"
       style="fill:black;fill-opacity:1;line-height:1.25;stroke:none;font-family:sans-serif;font-style:normal;font-weight:normal;font-size:10.58333333px;white-space:pre;shape-inside:url(#rect1455);" />
    <text
       xml:space="preserve"
       style="font-style:normal;font-weight:normal;font-size:10.5833px;line-height:1.25;font-family:sans-serif;fill:#e6e6c6;fill-opacity:1;stroke:none;stroke-width:0.264583"
       x="4.2818742"
       y="54.815365"
       id="text1461"><tspan
         sodipodi:role="line"
         id="tspan1459"
         x="4.2818742"
         y="54.815365"
         style="fill:#e6e6c6;fill-opacity:1;stroke-width:0.264583">Glove</tspan><tspan
         sodipodi:role="line"
         x="4.2818742"
         y="68.044487"
         style="fill:#e6e6c6;fill-opacity:1;stroke-width:0.264583"
         id="tspan1463"> Mold</tspan></text>
    <text
       xml:space="preserve"
       style="font-style:normal;font-weight:normal;font-size:10.5833px;line-height:1.25;font-family:sans-serif;fill:#e6e6c6;fill-opacity:1;stroke:none;stroke-width:0.264583"
       x="9.3229599"
       y="30.772636"
       id="text1479"><tspan
         sodipodi:role="line"
         id="tspan1477"
         x="9.3229599"
         y="30.772636"
         style="fill:#e6e6c6;fill-opacity:1;stroke-width:0.264583">Toy</tspan></text>
    <path
       style="fill:#608097;fill-opacity:1;stroke:#e6e6c6;stroke-width:1.05833;stroke-linecap:butt;stroke-linejoin:miter;stroke-miterlimit:4;stroke-dasharray:none;stroke-opacity:1;marker-start:url(#Arrow1Lstart-8)"
       d="M 61.031714,51.370668 42.00428,39.332794 28.672751,30.898484"
       id="path42-6"
       sodipodi:nodetypes="ccc" />
    <text
       xml:space="preserve"
       style="font-style:normal;font-weight:normal;font-size:10.5833px;line-height:1.25;font-family:sans-serif;fill:#ffb380;fill-opacity:1;stroke:none;stroke-width:0.264583"
       x="98.610657"
       y="37.336487"
       id="text2341"><tspan
         sodipodi:role="line"
         id="tspan2339"
         x="98.610657"
         y="37.336487"
         style="fill:#ffb380;fill-opacity:1;stroke-width:0.264583">Bubble</tspan><tspan
         sodipodi:role="line"
         x="98.610657"
         y="50.565609"
         style="fill:#ffb380;fill-opacity:1;stroke-width:0.264583"
         id="tspan2747">Trap</tspan></text>
    <path
       style="fill:#ffb380;fill-opacity:1;stroke:#e6e6c6;stroke-width:1.05833333;stroke-linecap:butt;stroke-linejoin:miter;stroke-miterlimit:4;stroke-dasharray:none;stroke-opacity:1;marker-start:url(#Arrow2Lstart)"
       d="M 92.422694,63.776838 108.5796,51.875865"
       id="path42-7"
       sodipodi:nodetypes="cc"
       inkscape:transform-center-x="-2.3428927"
       inkscape:transform-center-y="-17.305005" />
  </g>
</svg>
