<?xml version="1.0" encoding="UTF-8" standalone="no"?>
<svg
   xmlns:dc="http://purl.org/dc/elements/1.1/"
   xmlns:cc="http://creativecommons.org/ns#"
   xmlns:rdf="http://www.w3.org/1999/02/22-rdf-syntax-ns#"
   xmlns:svg="http://www.w3.org/2000/svg"
   xmlns="http://www.w3.org/2000/svg"
   xmlns:sodipodi="http://sodipodi.sourceforge.net/DTD/sodipodi-0.dtd"
   xmlns:inkscape="http://www.inkscape.org/namespaces/inkscape"
   width="533"
   height="400"
   viewBox="0 0 141.02292 105.83333"
   version="1.1"
   id="svg16"
   inkscape:version="1.0.2-2 (e86c870879, 2021-01-15)"
   sodipodi:docname="undercut.svg"
   inkscape:export-filename="C:\Users\katts\Creative Projects\cocksmithing\Cocksmithing Guide\images\undercut.png"
   inkscape:export-xdpi="95.275246"
   inkscape:export-ydpi="95.275246">
  <defs
     id="defs10">
    <marker
       style="overflow:visible"
       id="Arrow2Lstart"
       refX="0.0"
       refY="0.0"
       orient="auto"
       inkscape:stockid="Arrow2Lstart"
       inkscape:isstock="true">
      <path
         transform="scale(1.1) translate(1,0)"
         d="M 8.7185878,4.0337352 L -2.2072895,0.016013256 L 8.7185884,-4.0017078 C 6.9730900,-1.6296469 6.9831476,1.6157441 8.7185878,4.0337352 z "
         style="fill-rule:evenodd;stroke-width:0.625;stroke-linejoin:round;stroke:#e6e6c6;stroke-opacity:1;fill:#ffb380;fill-opacity:1"
         id="path885" />
    </marker>
    <rect
       x="24.946429"
       y="7.3705357"
       width="19.654762"
       height="84.288691"
       id="rect1455" />
    <rect
       x="25.324405"
       y="50.64881"
       width="3.2127976"
       height="10.96131"
       id="rect1449" />
    <marker
       style="overflow:visible"
       id="Arrow1Lstart"
       refX="0.0"
       refY="0.0"
       orient="auto"
       inkscape:stockid="Arrow1Lstart"
       inkscape:isstock="true">
      <path
         transform="scale(0.8) translate(12.5,0)"
         style="fill-rule:evenodd;stroke:#e6e6c6;stroke-width:1pt;stroke-opacity:1;fill:#805980;fill-opacity:1"
         d="M 0.0,0.0 L 5.0,-5.0 L -12.5,0.0 L 5.0,5.0 L 0.0,0.0 z "
         id="path867" />
    </marker>
    <marker
       style="overflow:visible"
       id="Arrow1Lstart-8"
       refX="0"
       refY="0"
       orient="auto"
       inkscape:stockid="Arrow1Lstart"
       inkscape:isstock="true">
      <path
         transform="matrix(0.8,0,0,0.8,10,0)"
         style="fill:#608097;fill-opacity:1;fill-rule:evenodd;stroke:#e6e6c6;stroke-width:1pt;stroke-opacity:1"
         d="M 0,0 5,-5 -12.5,0 5,5 Z"
         id="path867-9" />
    </marker>
    <marker
       style="overflow:visible"
       id="Arrow1Lstart-6"
       refX="0"
       refY="0"
       orient="auto"
       inkscape:stockid="Arrow1Lstart"
       inkscape:isstock="true">
      <path
         transform="matrix(0.8,0,0,0.8,10,0)"
         style="fill:#805980;fill-opacity:1;fill-rule:evenodd;stroke:#e6e6c6;stroke-width:1pt;stroke-opacity:1"
         d="M 0,0 5,-5 -12.5,0 5,5 Z"
         id="path867-7" />
    </marker>
  </defs>
  <sodipodi:namedview
     id="base"
     pagecolor="#ffffff"
     bordercolor="#666666"
     borderopacity="1.0"
     inkscape:pageopacity="0.0"
     inkscape:pageshadow="2"
     inkscape:zoom="3.959798"
     inkscape:cx="490.40691"
     inkscape:cy="400.38017"
     inkscape:document-units="mm"
     inkscape:current-layer="layer1"
     inkscape:document-rotation="0"
     showgrid="false"
     units="px"
     inkscape:window-width="1267"
     inkscape:window-height="1040"
     inkscape:window-x="2204"
     inkscape:window-y="88"
     inkscape:window-maximized="0" />
  <metadata
     id="metadata13">
    <rdf:RDF>
      <cc:Work
         rdf:about="">
        <dc:format>image/svg+xml</dc:format>
        <dc:type
           rdf:resource="http://purl.org/dc/dcmitype/StillImage" />
        <dc:title></dc:title>
      </cc:Work>
    </rdf:RDF>
  </metadata>
  <g
     inkscape:label="Layer 1"
     inkscape:groupmode="layer"
     id="layer1">
    <rect
       style="fill:#4d4d4d;stroke-width:0.265375"
       id="rect20"
       width="140.89296"
       height="105.70312"
       x="0.22191662"
       y="0.16482835" />
    <path
       style="fill:none;stroke:#000000;stroke-width:0.30983px;stroke-linecap:butt;stroke-linejoin:miter;stroke-opacity:1"
       d="m 35.382499,11.226304 62.016828,-0.225865 v 7.679419 L 75.715114,18.228127 75.281431,29.973122 94.580377,52.333782 V 74.46858 L 72.028799,90.053285 52.079335,76.727234 52.946702,51.430323 66.390905,32.909369 66.60775,17.550531 34.515129,17.324666 Z"
       id="path30" />
    <path
       style="fill:#5fbcd3;stroke-width:0.221308"
       d="m 62.260091,83.195079 c -5.327885,-3.566448 -9.74166,-6.542001 -9.80839,-6.612339 -0.06674,-0.07033 0.07145,-5.558862 0.307052,-12.196725 0.235611,-6.637862 0.4291,-12.234518 0.429974,-12.437021 9.11e-4,-0.202502 1.577359,-2.540205 3.503302,-5.1949 1.925942,-2.654696 4.942021,-6.813622 6.702399,-9.242062 l 3.200687,-4.415338 0.159214,-7.950785 0.159214,-7.950781 -13.963189,-0.0013 c -7.679756,-6.34e-4 -14.898222,-0.06567 -16.041042,-0.144513 l -2.077851,-0.143342 0.376884,-2.582225 c 0.207288,-1.420224 0.429367,-2.63689 0.49351,-2.703701 0.06414,-0.06681 13.929545,-0.176538 30.812007,-0.243835 l 30.695385,-0.122361 v 3.562525 3.562525 L 87.613986,18.232185 C 82.336597,18.151513 77.469891,18.029093 76.799091,17.960141 l -1.219638,-0.125368 -0.129057,1.430546 c -0.07098,0.7868 -0.188531,3.564974 -0.261229,6.173718 l -0.132179,4.743171 9.666496,11.180329 9.666503,11.180334 1.6e-4,10.870013 1.6e-4,10.87002 -11.092474,7.650933 c -6.100856,4.208018 -11.150566,7.672218 -11.221577,7.698227 -0.07101,0.026 -4.48828,-2.870714 -9.816165,-6.43716 z"
       id="path32" />
    <path
       style="fill:none;stroke:#000000;stroke-width:0.264583px;stroke-linecap:butt;stroke-linejoin:miter;stroke-opacity:1"
       d="m 35.382499,11.226304 c -2.197936,-0.179549 -4.260651,-0.04636 -6.402472,-0.04636 -0.617029,2.022344 -1.472301,4.749013 -0.75595,6.898065 0.168719,0.50616 0.831928,0.869917 1.133928,1.322917 0.06989,0.104832 -0.08909,0.288886 0,0.377976 0.143404,0.143404 0.557959,0.368971 0.755953,0.566964 0.609877,0.609878 1.170938,1.337721 2.078869,1.700893 2.014843,0.805938 4.657439,0.377977 6.803571,0.377977 2.168257,0 5.358201,0.287476 7.370536,0 0.754577,-0.107797 1.543177,-0.422029 2.267857,-0.566965 0.62673,-0.125346 1.441981,0 2.078869,0 0.949956,0 2.098845,-0.184993 3.023809,0 0.499674,0.09993 1.015084,0.442759 1.511905,0.566965 0.318456,0.07961 0.861819,0.0076 1.133929,0.188988 0.58604,0.390693 1.373859,0.806894 1.889881,1.322916 0.280623,0.280624 0.02228,2.139938 -0.188988,2.456846 -0.04942,0.07413 -0.125992,0.125992 -0.188988,0.188988 0,0.125992 0.05634,0.265285 0,0.377976 -0.299015,0.598029 -0.978287,1.126509 -1.322917,1.700893 -0.102493,0.170822 -0.06454,0.411406 -0.188988,0.566964 -0.141891,0.177363 -0.425074,0.200613 -0.566965,0.377976 -0.426619,0.533274 -0.883093,2.059402 -1.322916,2.645834 -1.435363,1.913817 -2.935628,3.607605 -3.779762,5.85863 -0.372906,0.994417 -0.512905,1.862632 -0.755952,2.834822 -0.595568,2.382272 -1.30093,4.825742 -1.889881,7.181548 -0.06833,0.273315 -0.288887,0.488682 -0.377977,0.755952 -0.407322,1.221967 -0.784842,2.500181 -1.511904,3.590774 -0.09884,0.148254 -0.286304,0.225188 -0.377977,0.377976 -0.192049,0.320083 -1.391527,3.676228 -1.511904,4.157738 -0.07639,0.305576 0.06177,0.636077 0,0.94494 -0.100929,0.504642 -0.3097,0.965696 -0.377977,1.511905 -0.05427,0.434188 0.05427,0.888729 0,1.322917 -0.197231,1.577853 -0.343195,3.158322 -0.566964,4.724702 -0.288957,2.022698 0,5.378728 0,7.559524 0,1.348872 0.167065,2.821223 0,4.157738 -0.157397,1.259177 -0.510113,3.062225 -0.188988,4.346726 0.09631,0.385255 0.282509,0.752061 0.377976,1.133929 0.154443,0.617769 0.560735,0.938711 0.944941,1.322917 0.282023,0.282023 0.05867,0.705459 0.377976,0.94494 0.159369,0.119527 0.442518,0.03343 0.566964,0.188988 0.162258,0.202823 0.06012,0.530436 0.188988,0.755953 1.007937,1.763889 0.251984,0 0.755953,0.755952 0.566298,0.849447 0.945144,1.701015 1.889881,2.267857 1.799919,1.079952 4.616145,1.65747 6.614583,2.456845 0.354353,0.141741 0.803199,0.472471 1.133929,0.566965 0.573764,0.163932 1.523565,0.192875 2.078869,0.377976 0.758925,0.252975 1.483378,0.872436 2.267857,1.133928 3.385762,1.128588 7.660202,0.930223 11.150297,1.511905 2.482664,0.413778 5.586914,-0.317447 8.126489,0 1.497415,0.187177 5.60256,0.497877 6.992559,0.188988 0.275018,-0.06112 0.492163,-0.279055 0.755952,-0.377976 0.486403,-0.182401 1.047269,-0.145658 1.511905,-0.377976 0.549617,-0.274808 1.007922,-0.773941 1.511902,-1.133929 1.9359,-1.382785 -0.47367,0.756981 1.51191,-0.94494 0.86271,-0.739466 1.48966,-1.678651 2.26785,-2.456845 1.97579,-1.975788 4.60779,-4.212186 5.102685,-7.181548 0.0875,-0.524775 0.27671,-1.00557 0.37798,-1.511905 0.13326,-0.666304 -0.13326,-1.412565 0,-2.078869 0.24384,-1.219197 0.17024,-2.533331 0.377978,-3.779762 0.0556,-0.333546 0.32238,-0.800382 0.37797,-1.133928 0.33012,-1.980738 0.99086,-3.866269 1.32292,-5.858631 0.41579,-2.494719 0.18899,-5.196989 0.18899,-7.748512 0,-3.481291 0.11,-6.978461 -0.37798,-10.394345 -0.0736,-0.515001 -0.42415,-1.012047 -0.56696,-1.511905 -0.32856,-1.149957 -0.66423,-2.305819 -1.133928,-3.401786 -0.17895,-0.417541 -0.53057,-0.739511 -0.75595,-1.133928 -0.238035,-0.416552 -0.300845,-0.92373 -0.566975,-1.322917 -0.14825,-0.222382 -0.43436,-0.334909 -0.56696,-0.566964 -0.12887,-0.225517 -0.0601,-0.530436 -0.18899,-0.755953 -0.1326,-0.232055 -0.41162,-0.349478 -0.56697,-0.566964 -0.68126,-0.953771 -1.12716,-2.108552 -1.88988,-3.02381 -1.16894,-1.402736 -3.10974,-2.97228 -4.7247,-3.779762 -0.23232,-0.116158 -0.5186,-0.0835 -0.75595,-0.188988 -0.874301,-0.388577 -1.664464,-1.036475 -2.456847,-1.511904 -0.618162,-0.370898 -1.451525,-0.442281 -2.078869,-0.755953 -0.159368,-0.07968 -0.218607,-0.298292 -0.377976,-0.377976 -0.112691,-0.05635 -0.273144,0.06989 -0.377976,0 -0.117205,-0.07814 -0.07899,-0.289979 -0.188988,-0.377976 -0.219992,-0.175994 -0.521542,-0.221702 -0.755952,-0.377976 -0.506115,-0.33741 -2.133855,-2.377828 -2.456846,-3.02381 -0.212239,-0.424479 -0.890601,-4.401065 -0.566964,-4.724702 0.727183,-0.727183 4.508759,-0.255367 5.527902,-0.425224 0.547879,-0.09131 1.46227,-0.141343 2.031622,-0.236235 1.063582,-0.0578 2.347644,-0.09501 3.260044,-0.236231 1.59192,-0.265321 3.0505,0.268693 4.63021,-0.04725 1.20973,-0.241947 2.990955,0.152693 4.157733,-0.236235 0.68207,0.173783 1.72455,-0.803473 2.22062,-0.897693 0.95264,-0.733613 0.5124,-0.941284 1.37016,-1.370164 0.23574,-1.415954 0.44296,-1.67306 0.42522,-3.165551 0,-0.426968 -0.0282,0.08452 0.18899,-0.566964 0.1516,-0.454799 0.1607,-1.974756 0,-2.456845 -0.15002,-0.450074 -0.64961,-1.216579 -0.94494,-1.511905 -0.0432,-0.0432 -0.53896,-0.146991 -0.56696,-0.188988 -0.11051,-0.165754 -0.73318,-0.426101 -0.87407,-0.566964 -1.76303,-0.19878 -3.261603,-0.228635 -4.600983,0.10398"
       id="path34"
       sodipodi:nodetypes="ccssssssssssscssccssssssssssssssssssssssssssssssssssssscsssssscsssssssssssssssssssccsccccsssscc" />
    <path
       style="fill:#de87cd;stroke-width:0.377976"
       d="M 75.519807,94.719116 C 66.48735,94.387612 62.731833,93.91397 59.598261,92.711103 58.272596,92.20223 55.742203,91.317821 53.975162,90.745754 49.030208,89.144859 48.275037,88.650265 45.824559,85.407571 L 43.59166,82.452797 43.56531,75.271252 c -0.02714,-7.398726 0.651417,-16.757049 1.384017,-19.087798 0.2287,-0.727605 1.064101,-2.683632 1.856443,-4.346726 0.792343,-1.663097 2.068314,-5.405059 2.83549,-8.315476 1.534456,-5.821225 2.025012,-6.960206 4.302741,-9.99014 0.84868,-1.128953 1.543055,-2.191618 1.543055,-2.361478 0,-0.169859 0.614119,-1.163645 1.364713,-2.208413 1.858243,-2.586543 2.258952,-4.431855 1.205799,-5.552883 -1.325549,-1.410984 -4.543216,-2.126423 -8.051167,-1.790155 -1.663094,0.159422 -6.268715,0.305286 -10.234708,0.324142 l -7.210901,0.03428 -1.330288,-1.133929 c -2.882828,-2.457298 -3.32474,-3.732157 -2.548437,-7.351927 l 0.409295,-1.908485 h 3.032929 c 2.363462,0 2.990485,0.110608 2.840638,0.501096 -0.105757,0.275604 -0.313859,1.636318 -0.462447,3.02381 l -0.270161,2.522713 9.398945,0.0012 c 5.169418,6.08e-4 12.332983,0.112436 15.919032,0.248465 l 6.52009,0.247327 v 7.293344 7.293343 l -6.747894,9.271481 -6.747893,9.271484 -0.248674,8.605589 C 52.189156,64.595192 51.971896,70.364902 51.843123,72.6837 l -0.234127,4.215992 10.21076,6.814058 10.21076,6.814061 11.367566,-7.817255 11.367566,-7.817252 0.01548,-11.456093 0.01545,-11.456096 -9.674534,-11.210028 c -9.41605,-10.910519 -9.668629,-11.245709 -9.453563,-12.545396 0.121531,-0.734451 0.22284,-3.21084 0.225126,-5.50309 l 0.0042,-4.167726 1.41741,0.09423 c 0.779576,0.05183 5.712166,0.152735 10.961309,0.22424 l 9.543899,0.130008 v -3.852264 -3.852272 l 1.181177,-0.236235 c 2.629678,-0.525935 3.838338,-0.113221 4.945408,1.955345 0.48259,0.901744 0.43643,4.75205 -0.22494,5.656528 -0.23562,0.322227 -0.69132,1.797164 -2.45631,2.411442 -2.801111,0.974876 -5.206348,0.597795 -8.862951,0.602209 -2.304055,0.0028 -4.694682,0.547677 -6.66183,0.417947 -1.141415,-0.07527 -2.516047,-0.0071 -3.493045,0.114801 -2.124305,0.265038 -2.355254,0.48848 -1.812607,3.371527 0.713864,3.792691 1.972315,4.937707 9.636588,8.767982 3.364346,1.681356 5.421524,3.997931 8.560977,9.640472 2.500418,4.494006 2.700938,5.529537 2.876588,14.855658 0.15373,8.162099 0.11853,8.706583 -0.81273,12.570947 -0.53538,2.221627 -1.131138,5.715539 -1.323908,7.764253 -0.4286,4.555128 -1.074233,5.928929 -4.490588,9.555308 -4.316688,4.582049 -7.511174,6.462263 -10.712823,6.305349 -0.703487,-0.03447 -4.595807,-0.184415 -8.6496,-0.333198 z"
       id="path40"
       sodipodi:nodetypes="cssscsssssssssscsscsssccscccccsscccccccssscsscccssssssssssssssscc" />
    <path
       style="fill:#805980;fill-opacity:1;stroke:#e6e6c6;stroke-width:1.05833;stroke-linecap:butt;stroke-linejoin:miter;stroke-miterlimit:4;stroke-dasharray:none;stroke-opacity:1;marker-start:url(#Arrow1Lstart)"
       d="M 51.703475,82.450775 36.316088,65.674997"
       id="path42"
       sodipodi:nodetypes="cc"
       inkscape:transform-center-x="2.2313116"
       inkscape:transform-center-y="-24.393375" />
    <text
       xml:space="preserve"
       id="text1447"
       style="font-style:normal;font-weight:normal;font-size:10.5833px;line-height:1.25;font-family:sans-serif;white-space:pre;shape-inside:url(#rect1449);fill:#ffffff;fill-opacity:1;stroke:none;" />
    <text
       xml:space="preserve"
       id="text1453"
       style="fill:black;fill-opacity:1;line-height:1.25;stroke:none;font-family:sans-serif;font-style:normal;font-weight:normal;font-size:10.58333333px;white-space:pre;shape-inside:url(#rect1455);" />
    <text
       xml:space="preserve"
       style="font-style:normal;font-weight:normal;font-size:10.5833px;line-height:1.25;font-family:sans-serif;fill:#e6e6c6;fill-opacity:1;stroke:none;stroke-width:0.264583"
       x="4.2818742"
       y="54.815365"
       id="text1461"><tspan
         sodipodi:role="line"
         id="tspan1459"
         x="4.2818742"
         y="54.815365"
         style="fill:#e6e6c6;fill-opacity:1;stroke-width:0.264583">Glove</tspan><tspan
         sodipodi:role="line"
         x="4.2818742"
         y="68.044487"
         style="fill:#e6e6c6;fill-opacity:1;stroke-width:0.264583"
         id="tspan1463"> Mold</tspan></text>
    <text
       xml:space="preserve"
       style="font-style:normal;font-weight:normal;font-size:10.5833px;line-height:1.25;font-family:sans-serif;fill:#e6e6c6;fill-opacity:1;stroke:none;stroke-width:0.264583"
       x="9.3229599"
       y="30.772636"
       id="text1479"><tspan
         sodipodi:role="line"
         id="tspan1477"
         x="9.3229599"
         y="30.772636"
         style="fill:#e6e6c6;fill-opacity:1;stroke-width:0.264583">Toy</tspan></text>
    <path
       style="fill:#608097;fill-opacity:1;stroke:#e6e6c6;stroke-width:1.05833;stroke-linecap:butt;stroke-linejoin:miter;stroke-miterlimit:4;stroke-dasharray:none;stroke-opacity:1;marker-start:url(#Arrow1Lstart-8)"
       d="M 61.031714,51.370668 42.00428,39.332794 28.672751,30.898484"
       id="path42-6"
       sodipodi:nodetypes="ccc" />
    <text
       xml:space="preserve"
       style="font-style:normal;font-weight:normal;font-size:10.5833px;line-height:1.25;font-family:sans-serif;fill:#ffb380;fill-opacity:1;stroke:none;stroke-width:0.264583"
       x="89.207947"
       y="32.214123"
       id="text2341"><tspan
         sodipodi:role="line"
         id="tspan2339"
         x="89.207947"
         y="32.214123"
         style="fill:#ffb380;fill-opacity:1;stroke-width:0.264583">Undercut</tspan></text>
    <path
       style="fill:#ffb380;fill-opacity:1;stroke:#e6e6c6;stroke-width:1.05833;stroke-linecap:butt;stroke-linejoin:miter;stroke-miterlimit:4;stroke-dasharray:none;stroke-opacity:1;marker-start:url(#Arrow2Lstart)"
       d="M 89.78462,43.818983 110.25305,33.563168"
       id="path42-7"
       sodipodi:nodetypes="cc"
       inkscape:transform-center-x="-2.9681026"
       inkscape:transform-center-y="-14.912808" />
  </g>
</svg>
